<svg xmlns="http://www.w3.org/2000/svg" id="Back" width="100%" height="100%" viewBox="0 0 3325.15 3325.15" xmlns:printify="http://printify.com/adjuster"  printify:width="879.78" printify:height="879.78"><defs><image x="0" y="0" width="3325.15" height="3325.15" id="fabric-image"/><path d="m2750.48,3061.14c4.3,0,7.73-3.58,7.55-7.88l-75.24-1768.06h0c6.68-55.37,202.43,26.18,363.36,82.51,3.78,1.32,7.93-.54,9.46-4.24l253.81-610.48c1.55-3.73-.11-8.02-3.76-9.74l-696.01-327.13h0s-644.79-151.14-644.79-151.14c-29.68-12.24-127.42,94.46-302.29,94.46-174.87,0-272.6-106.71-302.29-94.46l-644.79,151.14h0S19.49,743.26,19.49,743.26c-3.66,1.72-5.31,6.01-3.76,9.74l253.81,610.48c1.54,3.7,5.68,5.56,9.46,4.24,160.93-56.33,356.67-137.88,363.36-82.51h0s-75.24,1768.06-75.24,1768.06c-.18,4.3,3.25,7.88,7.55,7.88h2175.81Z" id="fabric-0"/><clipPath id="fabric-0-clip"><use href="#fabric-0"/></clipPath><rect id="_back-path" width="1700.36" height="2531.65" fill="none" stroke-miterlimit="10" transform=""/><clipPath><use stroke-width="3.66575mm" xmlns:xlink="http://www.w3.org/1999/xlink" xlink:href="#_back-path"/></clipPath></defs>
  <g id="color_first" fill-rule="nonzero" fill="#fff"><use href="#fabric-0"/><use clip-path="url(#fabric-0-clip)" href="#fabric-image"/>
    
    
  <g clip-path="url(#_back-clippath)" transform="translate(812.39 438.8)"><svg id="placeholder_back" width="1700.36" height="2531.65" preserveAspectRatio="xMidYMid slice" viewBox="0 0 1700.36 2531.65"><use stroke-width="3.66575mm" xmlns:xlink="http://www.w3.org/1999/xlink" xlink:href="#_back-path" stroke="#ffffff"/><use stroke-width="3.66575mm" xmlns:xlink="http://www.w3.org/1999/xlink" xlink:href="#_back-path" stroke="#000000" stroke-dasharray="7.3315mm, 7.3315mm"/></svg></g></g>
  <g id="outlines">
    <g id="outlines_colored">
      <path id="stitch" d="m570,2985.57h2185.15m-2186.11,22.67h2187.08M54.03,727.02l261.05,627.89M74.57,717.37l261.86,629.85m2934.69-620.19l-261.05,627.89m240.51-637.54l-261.86,629.85m-914.58-1056.61l-10.27,9.99c-1.68,1.66-41.98,41.13-111.47,80.74-64.15,36.56-166.51,80.14-289.83,80.14s-225.68-43.58-289.83-80.15c-69.49-39.61-109.79-79.08-111.47-80.74l-10.27-9.99m32.97-7.73c11.15,9.7,54.37,46.27,103.12,74.01,61.11,34.78,158.51,76.25,275.48,76.25s214.37-41.46,275.48-76.25c56.66-32.25,93.47-64.88,103.28-73.98" fill="none" opacity=".5" stroke="#000" stroke-dasharray="0 0 0 0 11.73 5.87 0 0" stroke-linecap="round" stroke-linejoin="round" stroke-width="2.35"/>
      <path id="detail" d="m715.5,416.13c94.51,344.82,169.03,680.37-73.14,869.07m1967.29-869.07c-94.51,344.82-169.03,680.37,73.14,869.07m-634.85-1000.74s-156.24,154.34-385.36,154.34-385.36-154.34-385.36-154.34" fill="none" stroke="#000" stroke-linejoin="round" stroke-width="5.87"/>
      <path id="contour" d="m2750.48,3061.14c4.3,0,7.73-3.58,7.55-7.88l-75.24-1768.06h0c6.68-55.37,202.43,26.18,363.36,82.51,3.78,1.32,7.93-.54,9.46-4.24l253.81-610.48c1.55-3.73-.11-8.02-3.76-9.74l-696.01-327.13h0s-644.79-151.14-644.79-151.14c-29.68-12.24-127.42,94.46-302.29,94.46-174.87,0-272.6-106.71-302.29-94.46l-644.79,151.14h0S19.49,743.26,19.49,743.26c-3.66,1.72-5.31,6.01-3.76,9.74l253.81,610.48c1.54,3.7,5.68,5.56,9.46,4.24,160.93-56.33,356.67-137.88,363.36-82.51h0s-75.24,1768.06-75.24,1768.06c-.18,4.3,3.25,7.88,7.55,7.88h2175.81Z" fill="none" stroke="#000" stroke-linecap="round" stroke-linejoin="round" stroke-width="11.73"/>
    </g>
  </g>
</svg>