<svg xmlns="http://www.w3.org/2000/svg" id="Front" width="100%" height="100%" viewBox="0 0 3325.15 3325.15" xmlns:printify="http://printify.com/adjuster"  printify:width="879.78" printify:height="879.78"><defs><image x="0" y="0" width="3325.15" height="3325.15" id="fabric-image"/><path d="m2750.48,3061.14c4.3,0,7.73-3.58,7.55-7.88l-75.24-1768.06h0c6.68-55.37,202.43,26.18,363.36,82.51,3.78,1.32,7.93-.54,9.46-4.24l253.81-610.48c1.55-3.73-.11-8.02-3.76-9.74l-696.01-327.13h0s-644.79-151.14-644.79-151.14c-29.68-12.24-127.42,94.46-302.29,94.46-174.87,0-272.6-106.71-302.29-94.46l-644.79,151.14h0S19.49,743.26,19.49,743.26c-3.66,1.72-5.31,6.01-3.76,9.74l253.81,610.48c1.54,3.7,5.68,5.56,9.46,4.24,160.93-56.33,356.67-137.88,363.36-82.51h0s-75.24,1768.06-75.24,1768.06c-.18,4.3,3.25,7.88,7.55,7.88h2175.81Z" id="fabric-0"/><clipPath id="fabric-0-clip"><use href="#fabric-0"/></clipPath><rect id="_pocket-path" width="415.64" height="472.32" fill="none" stroke-miterlimit="10" transform=""/><clipPath><use stroke-width="3.66575mm" xmlns:xlink="http://www.w3.org/1999/xlink" xlink:href="#_pocket-path"/></clipPath></defs>
  <g id="color_first" fill-rule="nonzero" fill="#fff"><use href="#fabric-0"/><use clip-path="url(#fabric-0-clip)" href="#fabric-image"/>
    
    
  <g clip-path="url(#_pocket-clippath)" transform="translate(1888.94 982.92)"><svg id="placeholder_pocket" width="415.64" height="472.32" preserveAspectRatio="xMidYMid slice" viewBox="0 0 415.64 472.32"><use stroke-width="3.66575mm" xmlns:xlink="http://www.w3.org/1999/xlink" xlink:href="#_pocket-path" stroke="#ffffff"/><use stroke-width="3.66575mm" xmlns:xlink="http://www.w3.org/1999/xlink" xlink:href="#_pocket-path" stroke="#000000" stroke-dasharray="7.3315mm, 7.3315mm"/></svg></g></g>
  <g id="outlines">
    <g id="shadows">
      <path id="shadow" d="m1964.86,264.99c-29.68-12.24-127.42,94.46-302.29,94.46-174.87,0-272.6-106.71-302.29-94.46-11.1,4.54,66.31,283.76,302.29,283.39,235.98.37,313.38-278.85,302.29-283.39Z" fill="#231f20" opacity=".25" stroke-width="0"/>
    </g>
    <g id="outlines_colored">
      <path id="stitch" d="m570,2985.57h2185.15m-2186.11,22.67h2187.08M1262.43,287.93c.48,3.43,1.08,6.99,1.81,10.69,7.5,37.97,36.64,122.6,98.27,198.96,35,43.37,75.4,77.99,120.09,102.91,54.9,30.61,115.29,46.14,179.5,46.14h.94c64.2,0,124.6-15.52,179.5-46.14,44.69-24.92,85.1-59.55,120.1-102.91,61.62-76.36,90.76-160.99,98.27-198.96.73-3.7,1.34-7.26,1.81-10.69M54.03,727.02l261.05,627.89M74.57,717.37l261.86,629.85m2934.69-620.19l-261.05,627.89m240.51-637.54l-261.86,629.85m-1099.78-317.86h415.64m-415.64,19.52h415.64m-408.09-9.83l17.38-44.47h-17.38v379.8l200.27,72.82,200.26-72.82v-379.8h-17.38l17.38,44.47m-1014.2-755.32c.45,3.42,1.05,7.07,1.8,10.86,7.13,36.1,34.97,116.73,94.05,189.94,74.61,92.45,172.62,141.32,283.42,141.32h.93c110.82,0,208.83-48.87,283.43-141.32,59.08-73.21,86.92-153.84,94.05-189.94.75-3.79,1.35-7.44,1.8-10.86" fill="none" opacity=".5" stroke="#000" stroke-dasharray="0 0 0 0 11.73 5.87 0 0" stroke-linecap="round" stroke-linejoin="round" stroke-width="2.35"/>
      <path id="collar" d="m1912.2,399.65c-57.89,28.85-142.29,61.82-249.62,61.82s-191.73-32.97-249.62-61.82m-32.04-59.95c181.84,111.18,380.97,111.5,563.33,0" fill="none" stroke="#000" stroke-linejoin="round" stroke-width="3.52"/>
      <path id="detail" d="m715.5,416.13c94.51,344.82,169.03,680.37-73.14,869.07m1967.29-869.07c-94.51,344.82-169.03,680.37,73.14,869.07m-793.85-302.29v396.75l207.82,75.57,207.82-75.57v-396.75s-415.64,0-415.64,0Zm159-698.46c-.47,3.57-1.08,7.3-1.86,11.22-7.23,36.61-35.43,118.33-95.2,192.4-75.73,93.83-175.26,143.42-287.83,143.43-.32,0-.62,0-.94,0-112.59,0-212.1-49.59-287.83-143.43-59.78-74.07-87.97-155.79-95.2-192.4-.78-3.92-1.39-7.65-1.86-11.22" fill="none" stroke="#000" stroke-linejoin="round" stroke-width="5.87"/>
      <path id="contour" d="m1964.86,264.99c11.1,4.54-66.31,283.76-302.29,283.39-235.98.37-313.38-278.85-302.29-283.39m1390.19,2796.15c4.3,0,7.73-3.58,7.55-7.88l-75.24-1768.06h0c6.68-55.37,202.43,26.18,363.36,82.51,3.78,1.32,7.93-.54,9.46-4.24l253.81-610.48c1.55-3.73-.11-8.02-3.76-9.74l-696.01-327.13h0s-644.79-151.14-644.79-151.14c-29.68-12.24-127.42,94.46-302.29,94.46-174.87,0-272.6-106.71-302.29-94.46l-644.79,151.14h0S19.49,743.26,19.49,743.26c-3.66,1.72-5.31,6.01-3.76,9.74l253.81,610.48c1.54,3.7,5.68,5.56,9.46,4.24,160.93-56.33,356.67-137.88,363.36-82.51h0s-75.24,1768.06-75.24,1768.06c-.18,4.3,3.25,7.88,7.55,7.88h2175.81Z" fill="none" stroke="#000" stroke-linecap="round" stroke-linejoin="round" stroke-width="11.73"/>
    </g>
  </g>
</svg>