<svg xmlns="http://www.w3.org/2000/svg" xmlns:xlink="http://www.w3.org/1999/xlink" id="Back" width="100%" height="100%" viewBox="0 0 4166.83 4166.83" xmlns:printify="http://printify.com/adjuster"  printify:width="1102.4775" printify:height="1102.4775">
  <defs>
    <clipPath id="clippath">
      <path d="M2083.42,3474.38c-1.36,0-408.53-.91-1059.15-27.21-41.88-824.11-47.24-1589.79-47.24-1589.79l-101.35,115.77s-17.61,1539.89-29.05,1539.89-294.1,11.89-302.46,1.32c-8.37-10.56-298.06-1187.24-287.49-1241.83,10.57-54.59,498.81-1077.3,548.12-1133.53,49.31-56.23,219.47-169.58,219.47-169.58,0,0,379-231.18,737.97-377.85,0,0,70.99,113.36,321.18,113.36,250.19,0,321.18-113.36,321.18-113.36,358.96,146.67,737.97,377.85,737.97,377.85,0,0,170.16,113.36,219.47,169.58,49.31,56.23,537.55,1078.94,548.12,1133.53,10.57,54.59-279.12,1231.27-287.49,1241.83-8.36,10.57-291.01-1.32-302.46-1.32s-29.05-1539.89-29.05-1539.89l-101.35-115.77s-5.36,765.67-47.24,1589.79c-650.62,26.29-1057.79,27.2-1059.15,27.21Z" fill="none"/>
    </clipPath>
  <image x="0" y="0" width="4166.83" height="4166.83" id="fabric-image"/><path d="M2083.42,3474.38c-1.36,0-408.53-.91-1059.15-27.21-41.88-824.11-47.24-1589.79-47.24-1589.79l-101.35,115.77s-17.61,1539.89-29.05,1539.89-294.1,11.89-302.46,1.32c-8.37-10.56-298.06-1187.24-287.49-1241.83,10.57-54.59,498.81-1077.3,548.12-1133.53,49.31-56.23,219.47-169.58,219.47-169.58,0,0,379-231.18,737.97-377.85,0,0,70.99,113.36,321.18,113.36,250.19,0,321.18-113.36,321.18-113.36,358.96,146.67,737.97,377.85,737.97,377.85,0,0,170.16,113.36,219.47,169.58,49.31,56.23,537.55,1078.94,548.12,1133.53,10.57,54.59-279.12,1231.27-287.49,1241.83-8.36,10.57-291.01-1.32-302.46-1.32s-29.05-1539.89-29.05-1539.89l-101.35-115.77s-5.36,765.67-47.24,1589.79c-650.62,26.29-1057.79,27.2-1059.15,27.21Z" id="fabric-0"/><clipPath id="fabric-0-clip"><use xlink:href="#fabric-0"/></clipPath><rect id="_back-path" width="383.9" height="383.9" fill="none" stroke-linejoin="round" transform=""/><clipPath><use stroke-width="4.5936562499999996mm" xlink:href="#_back-path"/></clipPath></defs>
  <g id="color_first" fill-rule="nonzero" fill="#fff"><use xlink:href="#fabric-0"/><use clip-path="url(#fabric-0-clip)" xlink:href="#fabric-image"/>
    <g clip-path="url(#clippath)">
      
      
    <g clip-path="url(#_back-clippath)" transform="translate(1891.46 780.07)"><svg id="placeholder_back" width="383.9" height="383.9" preserveAspectRatio="xMidYMid slice" viewBox="0 0 383.9 383.9"><use stroke-width="4.5936562499999996mm" xlink:href="#_back-path" stroke="#ffffff"/><use stroke-width="4.5936562499999996mm" xlink:href="#_back-path" stroke="#000000" stroke-dasharray="9.187312499999999mm, 9.187312499999999mm"/></svg></g></g>
  </g>
  <g id="outlines">
    <g id="outlines_colored">
      <path id="stitch" d="M3152.69,3356.22c-643.4,26-775.46,27.21-1069.27,27.21s-425.87-1.21-1069.27-27.21M3152.69,3333.75c-643.4,26-768.68,27.21-1069.27,27.21s-425.87-1.21-1069.27-27.21M526.04,3448.9c9.43,1.01,304.47,1.48,325.05,0M3315.75,3448.9c20.58,1.48,315.61,1.01,325.05,0M526.04,3429.04c9.43,1.01,304.47,1.48,325.05,0M3315.75,3429.04c20.58,1.48,315.61,1.01,325.05,0" fill="none" opacity=".5" stroke="#000" stroke-dasharray="13.33 6.66 0 0" stroke-linecap="round" stroke-linejoin="round" stroke-width="2.67"/>
      <path d="M2511.21,640.51c-.77.94-1.61,1.98-2.52,3.1-14.38,17.77-44.29,54.76-109.63,87.52-79.78,39.99-185.98,60.27-315.65,60.27s-235.88-20.28-315.65-60.27c-65.34-32.75-95.25-69.74-109.63-87.52-.9-1.12-1.74-2.16-2.52-3.1" fill="none" opacity=".5" stroke="#000" stroke-dasharray="13.33 6.66 0 0" stroke-linecap="round" stroke-linejoin="round" stroke-width="2.67"/>
      <path d="M1675.76,629.36c13.38,16.54,41.21,50.95,102.16,81.51,76.6,38.4,179.38,57.87,305.49,57.87s228.9-19.47,305.49-57.87c60.95-30.56,88.78-64.97,102.16-81.51" fill="none" opacity=".5" stroke="#000" stroke-dasharray="13.33 6.66 0 0" stroke-linecap="round" stroke-linejoin="round" stroke-width="2.67"/>
      <path d="M2502.45,633.32c-24.27,29.57-108.57,146.74-419.04,146.74s-394.77-117.18-419.04-146.74" fill="none" stroke="#000" stroke-linejoin="round" stroke-width="4"/>
      <path id="detail" d="M977.03,1857.39s147.38-317.35,47.23-887.97M3142.57,969.42c-100.15,570.62,47.23,887.97,47.23,887.97" fill="none" stroke="#000" stroke-linejoin="round" stroke-width="6.67"/>
      <path id="contour" d="M2083.42,3474.38s-407.35-.86-1059.16-27.2c-41.88-824.11-47.23-1589.78-47.23-1589.78l-101.35,115.77s-17.61,1539.88-29.06,1539.88-294.09,11.89-302.46,1.32-298.05-1187.24-287.49-1241.83c10.57-54.59,498.81-1077.31,548.12-1133.53,49.31-56.22,219.46-169.58,219.46-169.58,0,0,379.01-231.18,737.98-377.86,0,0,71,113.36,321.18,113.36s321.18-113.36,321.18-113.36c358.97,146.68,737.98,377.86,737.98,377.86,0,0,170.15,113.36,219.46,169.58,49.31,56.22,537.55,1078.94,548.12,1133.53,10.57,54.59-279.12,1231.26-287.49,1241.83s-291.01-1.32-302.46-1.32-29.06-1539.88-29.06-1539.88l-101.35-115.77s-5.35,765.67-47.23,1589.78c-651.81,26.34-1059.16,27.2-1059.16,27.2ZM875.68,1973.16c-32.58-614.6-117.72-783.5-82.28-817.36M3373.43,1155.81c35.44,33.86-49.7,202.76-82.28,817.36" fill="none" stroke="#000" stroke-linejoin="round" stroke-width="13.33"/>
    </g>
  </g>
</svg>