<svg xmlns="http://www.w3.org/2000/svg" id="Front" width="100%" height="100%" viewBox="0 0 4166.83 4166.83" xmlns:printify="http://printify.com/adjuster"  printify:width="1102.4775" printify:height="1102.4775"><defs><image x="0" y="0" width="4166.83" height="4166.83" id="fabric-image"/><path d="M2083.42,3474.38c-1.36,0-408.53-.91-1059.15-27.21-41.88-824.11-47.24-1589.79-47.24-1589.79l-101.35,115.77s-17.61,1539.89-29.05,1539.89-294.1,11.89-302.46,1.32c-8.37-10.56-298.06-1187.24-287.49-1241.83,10.57-54.59,498.81-1077.3,548.12-1133.53,49.31-56.23,219.47-169.58,219.47-169.58,0,0,379-231.18,737.97-377.85,0,0,70.99,113.36,321.18,113.36,250.19,0,321.18-113.36,321.18-113.36,358.96,146.67,737.97,377.85,737.97,377.85,0,0,170.16,113.36,219.47,169.58,49.31,56.23,537.55,1078.94,548.12,1133.53,10.57,54.59-279.12,1231.27-287.49,1241.83-8.36,10.57-291.01-1.32-302.46-1.32s-29.05-1539.89-29.05-1539.89l-101.35-115.77s-5.36,765.67-47.24,1589.79c-650.62,26.29-1057.79,27.2-1059.15,27.21Z" id="fabric-0"/><clipPath id="fabric-0-clip"><use href="#fabric-0"/></clipPath><rect id="_front-path" width="383.9" height="383.9" fill="none" stroke-linejoin="round" transform=""/><clipPath><use stroke-width="4.5936562499999996mm" xmlns:xlink="http://www.w3.org/1999/xlink" xlink:href="#_front-path"/></clipPath></defs>
  <g id="color_first" fill-rule="nonzero" fill="#fff"><use href="#fabric-0"/><use clip-path="url(#fabric-0-clip)" href="#fabric-image"/>
    <g>
      
      
    <g clip-path="url(#_front-clippath)" transform="translate(1891.46 1063.89)"><svg id="placeholder_front" width="383.9" height="383.9" preserveAspectRatio="xMidYMid slice" viewBox="0 0 383.9 383.9"><use stroke-width="4.5936562499999996mm" xmlns:xlink="http://www.w3.org/1999/xlink" xlink:href="#_front-path" stroke="#ffffff"/><use stroke-width="4.5936562499999996mm" xmlns:xlink="http://www.w3.org/1999/xlink" xlink:href="#_front-path" stroke="#000000" stroke-dasharray="9.187312499999999mm, 9.187312499999999mm"/></svg></g></g>
  </g>
  <g id="outlines">
    <g id="shadows">
      <path d="M2083.42,969.42c-283.41,0-321.18-377.86-321.18-377.86,0,0,71,113.36,321.18,113.36s321.18-113.36,321.18-113.36c0,0-37.77,377.86-321.18,377.86Z" fill="#231f20" opacity=".25"/>
    </g>
    <g id="outlines_colored">
      <path id="stitch" d="M3152.69,3356.22c-643.4,26-775.46,27.21-1069.27,27.21s-425.87-1.21-1069.27-27.21M3152.69,3333.75c-643.4,26-768.68,27.21-1069.27,27.21s-425.87-1.21-1069.27-27.21M526.04,3448.9c9.43,1.01,304.47,1.48,325.05,0M3315.75,3448.9c20.58,1.48,315.61,1.01,325.05,0M526.04,3429.04c9.43,1.01,304.47,1.48,325.05,0M3315.75,3429.04c20.58,1.48,315.61,1.01,325.05,0M1684.54,623.3c6.34,37.94,23.13,115.99,58.62,190.71,31.26,65.81,71.34,118.96,119.13,157.97,62.87,51.32,137.27,77.35,221.12,77.35s158.25-26.02,221.12-77.35c47.79-39.01,87.87-92.16,119.13-157.97,35.49-74.72,52.28-152.77,58.62-190.71M1659.88,636.99c6.57,39.3,22.52,113.41,59.39,191.04,32.95,69.38,75.45,125.6,126.3,167.11,67.72,55.28,147.74,83.31,237.85,83.31s170.13-28.03,237.85-83.31c50.85-41.51,93.34-97.73,126.3-167.11,36.87-77.63,52.82-151.74,59.39-191.04M1796.83,737.14c65.02,24.84,176.63,52.68,286.59,52.68s221.56-27.84,286.59-52.68M1796.83,714.56c65.02,24.84,176.63,52.68,286.59,52.68s221.56-27.84,286.59-52.68" fill="none" opacity=".5" stroke="#000" stroke-dasharray="13.33 6.66 0 0" stroke-linecap="round" stroke-linejoin="round" stroke-width="2.67"/>
      <path d="M2372.54,726.34c-88.02,29.25-179.16,53.73-289.12,53.73s-201.11-24.47-289.12-53.73" fill="none" stroke="#000" stroke-linejoin="round" stroke-width="4"/>
      <path id="detail" d="M1672.34,630.06c6.68,39.96,22.95,115.33,58.88,190.97,32.11,67.59,73.39,122.28,122.71,162.54,65.29,53.3,142.5,80.33,229.48,80.33s164.19-27.03,229.48-80.33c49.32-40.26,90.61-94.95,122.71-162.54,35.93-75.63,52.19-151.01,58.88-190.97M977.03,1857.39s147.38-317.35,47.23-887.97M3142.57,969.42c-100.15,570.62,47.23,887.97,47.23,887.97" fill="none" stroke="#000" stroke-linejoin="round" stroke-width="6.67"/>
      <path id="contour" d="M2083.42,3474.38s-407.35-.86-1059.16-27.2c-41.88-824.11-47.23-1589.78-47.23-1589.78l-101.35,115.77s-17.61,1539.88-29.06,1539.88-294.09,11.89-302.46,1.32c-8.36-10.57-298.05-1187.24-287.49-1241.83,10.57-54.59,498.81-1077.31,548.12-1133.53,49.31-56.22,219.46-169.58,219.46-169.58,0,0,379.01-231.18,737.98-377.86,0,0,71,113.36,321.18,113.36s321.18-113.36,321.18-113.36c358.97,146.68,737.98,377.86,737.98,377.86,0,0,170.15,113.36,219.46,169.58,49.31,56.22,537.55,1078.94,548.12,1133.53,10.57,54.59-279.12,1231.26-287.49,1241.83-8.36,10.57-291.01-1.32-302.46-1.32s-29.06-1539.88-29.06-1539.88l-101.35-115.77s-5.35,765.67-47.23,1589.78c-651.81,26.34-1059.16,27.2-1059.16,27.2ZM875.68,1973.16c-32.58-614.6-117.72-783.5-82.28-817.36M3373.43,1155.81c35.44,33.86-49.7,202.76-82.28,817.36M1762.24,591.57s37.77,377.86,321.18,377.86,321.18-377.86,321.18-377.86" fill="none" stroke="#000" stroke-linejoin="round" stroke-width="13.33"/>
    </g>
  </g>
</svg>